<?xml version="1.0" encoding="utf-8"?>
<!-- Generator: Adobe Illustrator 24.0.1, SVG Export Plug-In . SVG Version: 6.00 Build 0)  -->
<svg version="1.1" id="Layer_1" xmlns="http://www.w3.org/2000/svg"
	xmlns:xlink="http://www.w3.org/1999/xlink" x="0px" y="0px"
	viewBox="0 0 500 500" style="enable-background:new 0 0 500 500;" xml:space="preserve">
<style type="text/css">
	.st0{fill:#FFFFFF;}
	.st1{fill:#E6221E;}
</style>
<g>
	<path d="M451.2488403,272.8388672l-0.0820923,1.3761597c-0.2814941,4.7008667-0.5042114,8.4147949-1.0397949,11.2647705
		c-0.449585,2.6973877-1.2041626,4.6188354-2.3847656,6.0908203c-2.2634888,2.7052612-5.3752441,3.0980835-7.8303223,3.1331787
		c-3.7687378,0-8.1901855-0.7778931-14.8790894-1.9525757l-1.3565063-0.2404175
		c-7.2753906-1.335083-14.5037231-2.5489502-22.0839233-3.7081299c-4.4136353-0.6607056-8.6397705-1.2567139-12.5998535-1.723999
		c-12.0290527-1.4229736-23.9135132-2.1443481-35.3327637-2.1443481c-28.7416382,0-55.4542236,4.3727417-81.6585083,13.3641357
		c-23.9760132,8.229187-46.6307983,19.6836548-67.3387451,34.0465698l-0.3947144,0.2736816
		c-3.8233643,2.6563721-7.7756958,5.4007568-12.1228638,6.5696411c-1.1845703,0.3186035-2.173645,0.4750977-3.0259399,0.4750977
		c-1.9584961,0-3.4558716-0.6959839-5.7389526-4.3667603c-3.913147-6.2706299-5.9696045-14.4490356-7.7835693-21.6638184
		c-2.0875854-8.291626-3.2875977-16.4758301-3.5651855-24.3239136c-0.1719971-6.5422363,0.4338989-12.7112427,1.8021851-18.3153687
		c1.4268799-5.652832,3.6278687-10.6782837,6.5325317-14.9238281l0.3829956-0.5454102
		c1.1928711-1.6503296,2.5375366-3.187561,4.0004883-4.6038818c-2.0962524-3.8637085-4.3245239-7.3565674-6.5585938-10.1367188
		c-2.9749756-3.6924438-6.8883057-7.3242798-9.331665-9.3120728l-1.848999-1.5031738l-1.1611938,2.0836792
		c-2.717041,4.8768311-8.3619995,16.7437744-15.3206177,34.1304932c-0.5396729,1.4425659-1.1573486,2.9378662-1.7827759,4.4313354
		c-2.5293579,6.3527222-5.1408081,12.5392456-7.9946899,18.9466553c-0.9067993,2.0328979-1.817688,4.0578613-2.7912598,6.0811157
		c-0.3009033,0.5256958-1.5714722,2.9104614-1.5714722,2.9104614l1.1806641,1.0457153
		c11.3917847,10.0901489,17.7913818,24.0463867,18.0181885,39.2949219
		c0.4338989,29.5311279-23.2373047,53.9099121-52.7665405,54.3458252l-0.807312,0.0057983
		c-29.1266479,0-53.1730347-23.6710205-53.6030273-52.7683716c-0.4359131-29.5663452,23.2645874-53.9744263,52.8290405-54.4124146
		l1.8549805-0.0272217l0.3536987-1.8531494c0.2385864-3.9093628,0.3441772-9.9199829,0.3421021-19.4899902
		c0.0332031-7.8128052,0.2384033-14.1362915,0.6450806-19.8928223c0.5844116-9.1986084,1.6887817-17.7348022,3.3777466-26.1105957
		c2.1461792-10.7428589,5.2813721-20.3774414,9.5875854-29.4589233c0.9851074-2.0504761,2.0368042-4.0324707,3.1314697-5.9969482
		c0.3986206-0.7310791,0.7935791-1.3916626,1.1845703-2.0484619l1.1727905-1.9663696
		c0.6019897-1.026123,1.2039185-2.048584,1.8450928-3.0493774c0.5083008-0.7778931,1.0438843-1.536377,1.5794678-2.2907715
		c0.1251221-0.1798096,2.173584-3.0688477,2.8497925-3.9953613c1.473877-2.0114746,3.0180664-4.0090332,4.6639404-5.9813232
		c1.6731567-1.9898682,3.401062-3.9718628,5.2659302-5.961731c0.4260864-0.4573975,2.1344604-2.1678467,2.1344604-2.1678467
		c3.1587524-3.2661743,6.2275391-6.2275391,9.4019775-9.0736084c1.6889038-1.522583,3.0376587-2.6054688,4.3745728-3.6825562
		l1.9859619-1.6066895c6.9235229-5.588501,14.2575073-10.5631714,21.7908325-14.7794189
		c3.5808716-2.003479,7.2713013-3.8741455,10.9733887-5.559021c6.8062134-3.1137695,13.9017944-5.7408447,21.1027222-7.8088989
		c7.2597046-2.0799561,14.6054077-3.6612549,21.8337402-4.6991577c0,0,1.0282593-0.1270752,1.0321655-0.1270752
		c3.897644-0.5081177,7.4121094-0.8814087,11.1181641-1.180603l4.5622559-0.3557739
		c1.4854736-0.0585327,3.0063477-0.1016235,4.5270386-0.1231079c0.9577026-0.0136108,1.9155884-0.0214233,2.8693848-0.0214233
		c0,0,3.1274414,0.0292358,3.2057495,0.0292358c0.4338989,0,0.6333008,0.0136719,0.8325806,0.0253906
		c3.8703613,0.1115723,7.0877075,0.2775879,10.3012695,0.5219727c1.4307861,0.1074219,2.8497925,0.2247925,4.2766724,0.3693237
		c3.0415649,0.3010864,6.0751343,0.6860962,9.1049805,1.1416626c0.0742798,0.0097046,1.9234619,0.2208862,2.4041748,0.2971191
		c4.0149536,0.6782837,8.3192749,1.4425659,12.4903564,2.4041748c7.5568848,1.7729492,14.8126831,3.9290161,21.5601196,6.4113159
		c3.1626587,1.0789795,6.3215332,2.3633423,9.3746948,3.6044312l1.1142578,0.4495239
		c2.3806763,1.0360718,4.6480713,2.1189575,6.9116211,3.213623c3.0219727,1.4522095,5.977356,2.949585,8.8937988,4.5309448
		l0.8756104,0.4592285c2.4668579,1.350769,4.828125,2.7209473,7.2557983,4.1577148
		c8.6123047,5.1700439,16.6734009,10.9207764,23.9526978,17.0838013
		c20.7733154,17.5858154,36.5021362,38.7584839,46.6149292,62.3453979c0.2119751,0.1026611,0.4260254,0.1876831,0.6378784,0.2932739
		c3.7877808,1.8886719,7.8289795,3.7436523,11.0977173,6.4153442c2.3842773,1.9488525,4.5159912,4.2012939,6.279541,6.7280884
		c4.1443481,5.9382324,5.9038086,12.9428101,6.8734741,20.0209961c0.3400269,2.4824829,0.543396,5.1974487,0.6801147,9.1029053
		C451.6711426,260.9387207,451.5734253,266.3337402,451.2488403,272.8388672z"/>
	<path class="st0" d="M131.7634277,311.4960938c7.0993042,7.4630127,11.0946655,17.2578125,11.2509766,27.5842896
		c0.1604004,10.9306641-3.9561768,21.2786255-11.5911865,29.142334
		c-7.6348877,7.8637085-17.8577881,12.2833252-28.7885132,12.4435425l-0.6137085,0.0039063
		c-22.2990112,0-40.7080078-18.1140747-41.036499-40.3796997c-0.3244019-22.0441895,16.6509399-40.3120728,38.6480103-41.5875244
		c0.6953125-0.0405273,1.5721436-0.1187134,2.239502,0.1118774c0.788269,0.2724609,0.3342896,2.1676025,0.3238525,2.8462524
		c-0.0367432,2.420166-0.0664063,4.840332-0.0604248,7.2606812c0.0117798,4.8349609,0.1629639,9.6756592,0.6728516,14.4862061
		c0.0757446,0.7128296,0.1624146,1.4381104,0.4550171,2.0928955c0.5406494,1.2114258,2.1870117,2.0865479,3.3673096,2.5611572
		c2.034668,0.817749,4.1110229-0.4899292,5.7429199-1.6513062c6.4421387-4.5854492,13.1957397-10.1542969,17.6854248-16.7070923
		L131.7634277,311.4960938z M439.8765869,258.1338501c-0.156311-5.1192627-0.559082-11.1084595-2.3612671-16.706604
		c-2.5684814-7.9614868-8.4246216-13.5988159-17.9125977-17.2363892c-3.2251587-1.2373047-6.552124-2.2263794-9.3786621-3.0296631
		c-11.7161865-3.3170776-27.5372925-5.0685425-45.7549438-5.0685425c-1.4346924,0-2.8889771,0.0097046-4.3589478,0.031311
		c-71.3965454,1.0535889-156.3546753,25.4909668-171.5189209,49.3339844
		c-5.0782471,7.9810181-5.2034302,18.0065918-4.8516235,24.8518066c0.3988037,7.8167114,1.6419678,16.2727051,3.7998657,25.8505859
		c0.4301758,1.9234619,1.333252,5.9285278,4.7382202,7.296814c0.7114868,0.2872925,1.4777832,0.4320679,2.2791748,0.4320679
		c2.0366821,0,3.9211426-0.9129639,5.527832-1.7671509l19.1363525-10.2072754
		c20.6531372-11.0203857,45.4657593-23.2313232,72.9327393-30.2641602c5.21521-1.3371582,10.4615479-2.4767456,15.5944824-3.3913574
		c15.6804199-2.7914429,30.215332-4.2494507,44.4336548-4.4587402c1.2315063-0.0175781,2.4628906-0.0272827,3.694458-0.0272827
		c13.229248,0,27.2011719,1.0183716,42.7252808,3.1137695c5.4614258,0.7349854,11.0595703,1.5891724,17.1151733,2.609436
		l0.4338989,0.0723267c4.3902588,0.7388916,8.5380249,1.4367676,12.9399414,1.9135742
		c0.9030151,0.0977783,1.8217773,0.1936035,2.7286987,0.1936035c0.946167,0,1.7826538-0.0997925,2.5646362-0.3029175
		c2.6387939-0.6900024,4.3197632-2.4610596,4.999939-5.2659302c0.4066162-1.6732788,0.4066162-3.493042,0.4066162-5.0978394
		c0-0.5335083,0-1.0535889,0.015686-1.5441895C439.9547729,265.1100464,439.9782715,261.5095825,439.8765869,258.1338501z"/>
	<path class="st1" d="M408.2440796,207.8519287c-12.1012573-2.7589111-27.335144-4.2243042-44.4239502-4.2243042
		c-1.5441895,0-3.1040649,0.0117798-4.6793823,0.0352783c-8.3914795,0.1237793-16.7780151,0.5476685-25.1427002,1.2236938
		c-8.536377,0.6896973-17.0513306,1.6428223-25.5314941,2.8379517c-8.4503784,1.1907959-16.8671875,2.6223145-25.2352905,4.296936
		c-8.137207,1.6283569-16.2294922,3.4863892-24.2544556,5.600708c-7.6002808,2.0025024-15.1419678,4.2339478-22.5886841,6.7495117
		c-6.8443604,2.3118896-13.6122437,4.8621826-20.2382813,7.7426758c-6.4753418,2.8148804-12.9158936,5.9285278-19.0496216,9.4182739
		c-0.9255371,0.5267334-1.8380127,1.0774536-2.7316895,1.6567993c-3.0385132-5.3153076-6.4460449-10.0264282-10.2431641-13.9559326
		l-2.3222656-2.4043579l3.213562-0.9127197c16.9509888-4.8143311,42.7799072-14.392395,44.6798706-18.4424438
		c1.2119751-2.578186,0.3753052-3.8761597,0.1016846-4.3001709c-0.4730835-0.7349854-1.4386597-1.6107788-3.4402466-1.6107788
		c-1.9898682,0.02948-5.2659302,0.9714966-12.0837402,3.4793701c-12.4435425,4.5934448-25.6141968,8.3601074-33.1083984,10.1878662
		l-5.5004272,1.3408813l3.4363403-4.4997559c3.1236572-4.0929565,6.1729126-7.8381958,8.1627197-10.0196533
		c11.4700317-12.5528564,23.0494995-22.1230469,39.9379883-33.0125122c3.0335693-2.0269775,5.0586548-3.8545532,5.0939331-6.1748047
		c0.0194092-1.2626953-0.6060791-2.4707031-1.7240601-3.2681885c-0.480896-0.3674927-1.3253784-0.8034668-2.685791-0.8034668
		c-7.4863892,0.1115723-30.9072266,17.1367798-44.8285522,30.9953003
		c-19.3238525,19.2907715-29.515625,36.237854-45.4384155,75.550293
		c-4.6911621,11.7261353-8.8117065,20.821228-12.9712524,28.630127c-1.2078857,2.2380981-2.3534546,4.2787476-3.5691528,6.3273315
		c0,0.5576782-1.0430298,1.7337036-1.3444214,2.2192383c-0.4637451,0.7477417-0.9463501,1.4830933-1.4130859,2.2287598
		c-0.9022217,1.4400024-1.9743652,2.6880493-3.0860596,3.9946899c-0.1774292,0.2086182-0.3613281,0.4224854-0.6051636,0.5469971
		c-0.2438965,0.125-0.5652466,0.1392822-0.7736816-0.0385132c-0.2554321-0.2184448-0.2427979-0.6102905-0.2085571-0.9449463
		c0.3640747-3.567749,0.9711304-7.0529175,1.3754272-10.6157837c0.3497925-2.3026733,0.5941162-4.6971436,0.7778931-7.5606079
		c0.5668945-7.4161987,0.699707-15.9072266,0.7310181-27.201355c0.0352783-42.1936035,7.126709-65.7767944,27.0957642-90.1126099
		c27.4515381-33.5578003,67.2956543-52.402771,112.1867065-53.0655518l2.3024902-0.0175171
		C313.3382568,119.7286377,376.7576904,149.8720703,408.2440796,207.8519287z"/>
</g>
</svg>